<svg width="798" height="51" viewBox="0 0 798 51" fill="none" xmlns="http://www.w3.org/2000/svg">
<g id="Group 58">
<path id="Vector" d="M288.742 41.9234C288.742 42.6794 288.231 43.2235 287.496 43.2235C286.739 43.2235 286.25 42.6454 286.25 41.9234C286.25 41.2014 286.739 40.6234 287.496 40.6234C288.231 40.6234 288.742 41.2014 288.742 41.9234ZM254.154 40.6234C253.363 40.6234 252.908 41.2014 252.908 41.9234C252.908 42.6454 253.365 43.2235 254.154 43.2235C254.877 43.2235 255.366 42.6794 255.366 41.9234C255.354 41.2014 254.877 40.6234 254.154 40.6234ZM267.23 40.5914C266.63 40.5914 266.261 40.9794 266.173 41.5574H268.298C268.198 40.9234 267.809 40.5914 267.23 40.5914ZM279.227 40.6234C278.47 40.6234 278.015 41.2014 278.015 41.9234C278.015 42.6454 278.472 43.2235 279.227 43.2235C279.984 43.2235 280.473 42.6794 280.473 41.9234C280.473 41.2014 279.982 40.6234 279.227 40.6234ZM291.012 43.5235C291.012 43.5575 291.046 43.5795 291.046 43.6455C291.046 43.6795 291.012 43.7015 291.012 43.7675C290.978 43.8015 290.978 43.8235 290.956 43.8555C290.922 43.8895 290.9 43.9115 290.833 43.9115C290.799 43.9455 290.777 43.9455 290.711 43.9455C290.677 43.9455 290.655 43.9455 290.589 43.9115C290.555 43.9115 290.533 43.8775 290.501 43.8555C290.467 43.8215 290.445 43.7995 290.445 43.7675C290.411 43.7115 290.411 43.6795 290.411 43.6455C290.411 43.5895 290.411 43.5575 290.445 43.5235C290.445 43.4675 290.479 43.4355 290.501 43.4015C290.535 43.3675 290.557 43.3675 290.589 43.3455C290.645 43.3115 290.677 43.3115 290.711 43.3115C290.767 43.3115 290.799 43.3115 290.833 43.3455C290.89 43.3775 290.922 43.3775 290.956 43.4015C290.99 43.4255 290.978 43.4675 291.012 43.5235ZM290.767 43.6795C290.823 43.6795 290.823 43.6455 290.856 43.6455C290.89 43.6115 290.89 43.5895 290.89 43.5575C290.89 43.5255 290.89 43.5015 290.856 43.4695C290.823 43.4695 290.799 43.4355 290.733 43.4355H290.555V43.8235H290.643V43.6675H290.677L290.799 43.8235H290.888L290.767 43.6795ZM299.102 5.33418V44.4475C299.102 45.862 298.539 47.2185 297.537 48.2187C296.535 49.219 295.177 49.7811 293.76 49.7817H240.342C238.926 49.7811 237.567 49.219 236.565 48.2187C235.564 47.2185 235.001 45.862 235 44.4475V5.33418C235.001 3.91963 235.564 2.56317 236.565 1.56293C237.567 0.562692 238.926 0.000530092 240.342 0H293.76C295.177 0.000530092 296.535 0.562692 297.537 1.56293C298.539 2.56317 299.102 3.91963 299.102 5.33418V5.33418ZM242.125 20.8447C242.125 29.345 249.036 36.2332 257.537 36.2332C260.565 36.2246 263.524 35.3327 266.051 33.6671C257.938 27.0789 257.994 14.6445 266.051 8.05427C263.526 6.38348 260.566 5.49107 257.537 5.48818C249.036 5.47818 242.125 12.3764 242.125 20.8447V20.8447ZM267.052 32.9351C274.899 26.8229 274.864 14.9125 267.052 8.76829C259.24 14.9125 259.206 26.8349 267.052 32.9351ZM251.215 41.4134C251.215 40.4474 250.58 39.8133 249.579 39.7793C249.066 39.7793 248.521 39.9353 248.155 40.5014C247.888 40.0453 247.431 39.7793 246.796 39.7793C246.566 39.7758 246.338 39.8286 246.132 39.9332C245.926 40.0378 245.749 40.1909 245.617 40.3794V39.8913H244.705V43.9695H245.617C245.617 41.8694 245.338 40.6134 246.618 40.6134C247.754 40.6134 247.532 41.7474 247.532 43.9695H248.411C248.411 41.9354 248.133 40.6134 249.413 40.6134C250.548 40.6134 250.324 41.7254 250.324 43.9695H251.237V41.4134H251.215ZM256.213 39.8913H255.334V40.3794C255.178 40.1855 254.98 40.0304 254.754 39.9262C254.528 39.8221 254.281 39.7718 254.032 39.7793C252.886 39.7793 252.007 40.6914 252.007 41.9234C252.007 43.1675 252.886 44.0675 254.032 44.0675C254.611 44.0675 255.033 43.8555 255.334 43.4675V43.9795H256.213V39.8913ZM260.72 42.7354C260.72 41.0694 258.172 41.8234 258.172 41.0454C258.172 40.4114 259.496 40.5134 260.232 40.9234L260.598 40.2014C259.552 39.5233 257.237 39.5353 257.237 41.1134C257.237 42.7014 259.785 42.0354 259.785 42.7794C259.785 43.4795 258.282 43.4235 257.481 42.8674L257.093 43.5675C258.339 44.4115 260.72 44.2335 260.72 42.7334V42.7354ZM264.66 43.7675L264.416 43.0114C263.993 43.2435 263.058 43.4995 263.058 42.5554V40.7114H264.516V39.8893H263.058V38.6453H262.145V39.8893H261.299V40.7014H262.145V42.5574C262.145 44.5135 264.07 44.1575 264.66 43.7675V43.7675ZM266.139 42.2794H269.2C269.2 40.4794 268.376 39.7673 267.263 39.7673C266.083 39.7673 265.237 40.6454 265.237 41.9114C265.237 44.1895 267.753 44.5675 268.999 43.4895L268.577 42.8234C267.709 43.5355 266.395 43.4675 266.139 42.2794V42.2794ZM272.717 39.8913C272.206 39.6693 271.427 39.6913 271.026 40.3794V39.8913H270.113V43.9695H271.026V41.6694C271.026 40.3794 272.084 40.5474 272.451 40.7354L272.717 39.8913ZM273.897 41.9234C273.897 40.6554 275.189 40.2454 276.201 40.9894L276.623 40.2674C275.331 39.2573 272.984 39.8113 272.984 41.9334C272.984 44.1335 275.475 44.5775 276.623 43.5995L276.201 42.8774C275.177 43.5995 273.897 43.1674 273.897 41.9214V41.9234ZM281.319 39.8913H280.405V40.3794C279.482 39.1573 277.078 39.8473 277.078 41.9234C277.078 44.0575 279.57 44.6675 280.405 43.4675V43.9795H281.319V39.8913ZM285.068 39.8913C284.802 39.7573 283.845 39.5693 283.378 40.3794V39.8913H282.498V43.9695H283.378V41.6694C283.378 40.4474 284.379 40.5254 284.802 40.7354L285.068 39.8913ZM289.553 38.2353H288.674V40.3794C287.761 39.1693 285.347 39.8133 285.347 41.9234C285.347 44.0795 287.851 44.6555 288.674 43.4675V43.9795H289.553V38.2353ZM290.401 29.891V30.403H290.489V29.891H290.699V29.803H290.186V29.891H290.401ZM291.134 43.6455C291.134 43.5895 291.134 43.5235 291.102 43.4675C291.068 43.4335 291.046 43.3795 291.014 43.3455C290.982 43.3115 290.926 43.2895 290.892 43.2575C290.835 43.2575 290.769 43.2235 290.713 43.2235C290.679 43.2235 290.625 43.2575 290.557 43.2575C290.513 43.2821 290.472 43.3116 290.435 43.3455C290.379 43.3775 290.347 43.4335 290.347 43.4675C290.313 43.5235 290.313 43.5895 290.313 43.6455C290.313 43.6795 290.313 43.7335 290.347 43.8015C290.347 43.8355 290.381 43.8895 290.435 43.9235C290.469 43.9614 290.51 43.9914 290.557 44.0115C290.613 44.0435 290.679 44.0435 290.713 44.0435C290.769 44.0435 290.835 44.0435 290.892 44.0115C290.926 43.9775 290.98 43.9555 291.014 43.9235C291.048 43.8915 291.07 43.8355 291.102 43.8015C291.134 43.7355 291.134 43.6795 291.134 43.6455ZM291.491 29.791H291.334L291.156 30.179L290.978 29.791H290.821V30.391H290.91V29.935L291.088 30.323H291.21L291.366 29.935V30.391H291.488L291.491 29.791ZM291.979 20.8447C291.979 12.3764 285.068 5.47818 276.567 5.47818C273.539 5.48576 270.58 6.37777 268.054 8.04427C276.078 14.6345 276.201 27.1009 268.054 33.6571C270.579 35.325 273.539 36.2172 276.567 36.2232C285.068 36.2352 291.979 29.345 291.979 20.8447Z" fill="#604AEA"/>
<path id="Vector_2" d="M3.1642 0C1.41701 0 0 1.41957 0 3.17081V46.6109C0 48.362 1.41772 49.7817 3.1642 49.7817H75.9409C77.6881 49.7817 79.1051 48.3621 79.1051 46.6109V3.17081C79.1051 1.41965 77.6874 0 75.9409 0H3.1642ZM47.2455 14.8359C49.1708 14.8359 50.7137 15.262 51.6976 15.6583L51.0253 19.8968L50.5803 19.6714C49.6637 19.2751 48.4864 18.8937 46.8623 18.9208C44.9183 18.9208 44.0195 19.7898 44.0195 20.6029C44.0082 21.519 45.0697 22.1232 46.8055 23.028C49.6704 24.4239 50.9946 26.1165 50.9759 28.3415C50.9373 32.4015 47.5487 35.0251 42.3287 35.0251C40.1016 35.0005 37.9561 34.528 36.7962 33.9821L37.4934 29.6024L38.1336 29.9146C39.7646 30.6448 40.8206 30.9402 42.8082 30.9402C44.2355 30.9402 45.7675 30.3413 45.7796 29.0302C45.7889 28.1741 45.1393 27.5637 43.2062 26.6051C41.3225 25.6693 38.8253 24.1019 38.853 21.2915C38.8825 17.4896 42.3386 14.8359 47.2455 14.8359V14.8359ZM6.99582 15.4577H15.0126C16.0922 15.4986 16.9638 15.8469 17.2647 17.0208L18.9927 25.9585C18.9929 25.9593 18.9923 25.9626 18.9927 25.9634L19.5118 28.6413L24.3792 15.4577H29.6446L21.8181 34.7551L16.5576 34.76L12.3701 19.1883C14.8617 20.5111 16.983 22.0415 18.2115 24.1477C17.8948 23.4813 17.4774 22.729 16.9434 21.9876C16.3214 21.1242 14.9783 20.0094 14.4169 19.5351C12.4606 17.8826 9.80389 16.5479 6.93404 15.8417L6.99582 15.4577V15.4577ZM31.7385 15.48H36.8877L33.6666 34.7476H28.5174L31.7385 15.48V15.48ZM60.8219 15.48H64.7229L68.8067 34.7476H64.1246C64.1246 34.7476 63.6601 32.5341 63.5091 31.8592C62.7732 31.8592 57.6263 31.8518 57.0471 31.8518C56.8512 32.3734 55.9842 34.7475 55.9842 34.7475H50.6866L58.1794 17.0803C58.7098 15.8248 59.6141 15.48 60.8219 15.48V15.48ZM61.2051 20.6622C60.9518 21.3789 60.5106 22.5363 60.5401 22.4855C60.5401 22.4855 58.9551 26.7217 58.5403 27.8214L62.7056 27.8188C62.5049 26.8635 61.5438 22.3073 61.5438 22.3073L61.2051 20.6624V20.6622Z" fill="#604AEA"/>
<path id="Vector_3" d="M694.382 1.00131C690.603 1.00156 686.899 2.0538 683.683 4.04052C680.468 6.02725 677.866 8.87025 676.17 12.2521C674.743 15.0965 674 18.2357 674 21.4191C674 24.6024 674.743 27.7417 676.17 30.5861C677.866 33.9679 680.468 36.8109 683.683 38.7976C686.899 40.7843 690.603 41.8366 694.382 41.8368C699.885 41.8368 704.513 40.0235 707.892 36.9069C711.739 33.3524 713.961 28.0979 713.961 21.8853C713.96 20.4935 713.839 19.1044 713.601 17.7332H694.387V25.5943H705.393C705.169 26.8501 704.693 28.0474 703.995 29.1142C703.297 30.181 702.39 31.0952 701.33 31.8018C699.499 33.0433 697.143 33.7542 694.387 33.7542C689.069 33.7542 684.558 30.1636 682.944 25.3264C682.091 22.7916 682.091 20.0466 682.944 17.5117C684.558 12.6693 689.069 9.08393 694.387 9.08393C697.292 9.03631 700.1 10.1354 702.204 12.1439L708.026 6.32275C704.337 2.84987 699.449 0.942716 694.387 1.00131H694.382ZM727.816 3.8346V39.3796H732.373V24.9813H739.907C743.008 24.9813 745.616 23.9716 747.735 21.9522C748.79 21.0052 749.627 19.8409 750.191 18.5392C750.755 17.2375 751.031 15.8291 751.001 14.4105C751.022 12.9993 750.742 11.5998 750.178 10.3061C749.615 9.01242 748.782 7.85445 747.735 6.91002C746.698 5.90419 745.472 5.11409 744.129 4.58535C742.785 4.05661 741.35 3.7997 739.907 3.82945L727.816 3.8346ZM740.298 8.21333C741.093 8.22723 741.878 8.40081 742.605 8.72378C743.332 9.04675 743.987 9.51255 744.531 10.0936C745.11 10.6582 745.571 11.3333 745.885 12.0792C746.2 12.8251 746.362 13.6266 746.362 14.4363C746.362 15.246 746.2 16.0474 745.885 16.7933C745.571 17.5392 745.11 18.2144 744.531 18.7789C743.948 19.3831 743.246 19.8588 742.469 20.1755C741.693 20.4922 740.858 20.6429 740.02 20.618H732.373V8.21333H740.02C740.113 8.21117 740.205 8.21117 740.298 8.21333V8.21333ZM761.508 14.2663C757.177 14.2663 753.911 15.8529 751.7 19.0314L755.717 21.5607C757.198 19.4126 759.214 18.3359 761.76 18.3359C763.384 18.3159 764.956 18.9101 766.162 19.9998C766.756 20.4916 767.233 21.1097 767.558 21.8092C767.884 22.5087 768.05 23.272 768.044 24.0437V25.0843C766.296 24.0901 764.064 23.5955 761.358 23.5955C758.185 23.5955 755.65 24.3425 753.752 25.8313C751.849 27.3149 750.903 29.3188 750.903 31.8327C750.882 32.964 751.114 34.0857 751.581 35.1159C752.048 36.1461 752.739 37.0589 753.603 37.7878C755.403 39.3744 757.64 40.1729 760.314 40.1729C763.452 40.1729 765.961 38.782 767.849 36.0002H768.044V39.3744H772.406V24.3889C772.406 21.2465 771.428 18.7738 769.484 16.9708C767.53 15.1678 764.876 14.2663 761.508 14.2663V14.2663ZM773.146 15.0596L783.154 37.8393L777.507 50.0997H782.213L797.431 15.0545H792.468L785.433 32.523H785.33L778.099 15.0596H773.146ZM762.109 27.2582C764.65 27.2582 766.635 27.8249 768.055 28.9582C768.055 30.8745 767.299 32.5436 765.792 33.9706C764.432 35.3332 762.588 36.1001 760.664 36.1033C759.379 36.1278 758.125 35.7055 757.116 34.9081C756.646 34.5678 756.264 34.1201 756.002 33.6022C755.74 33.0843 755.605 32.5112 755.609 31.9306C755.609 30.6067 756.226 29.5094 757.476 28.5976C758.71 27.7064 760.253 27.2582 762.104 27.2582H762.109Z" fill="#604AEA"/>
<path id="Vector_4" d="M475.514 25.7905C475.514 27.128 474.446 28.1459 473.092 28.1459C472.079 28.1459 471.33 27.5758 471.33 26.5027C471.33 25.1652 472.377 24.0921 473.72 24.0921C474.745 24.0921 475.516 24.7174 475.516 25.7905H475.514ZM463.865 20.4762H463.347C463.183 20.4762 463.016 20.5866 462.995 20.7721L462.521 23.6995L463.425 23.666C464.636 23.666 465.571 23.5022 465.791 22.1095C466.045 20.6399 465.109 20.4762 463.865 20.4762V20.4762ZM495.134 20.4762H494.639C494.44 20.4762 494.308 20.5866 494.286 20.7721L493.824 23.6995L494.704 23.666C496.135 23.666 497.126 23.3365 497.126 21.6933C497.114 20.5314 496.069 20.4762 495.132 20.4762H495.134ZM518.42 6.26111V44.8386C518.42 46.2338 517.863 47.5717 516.872 48.5582C515.881 49.5447 514.537 50.0992 513.135 50.0997H460.286C458.884 50.0992 457.54 49.5447 456.549 48.5582C455.558 47.5717 455.001 46.2338 455 44.8386V6.26111C455.001 4.86594 455.558 3.52806 456.549 2.54152C457.54 1.55498 458.884 1.00052 460.286 1H513.135C514.537 1.00052 515.881 1.55498 516.872 2.54152C517.863 3.52806 518.42 4.86594 518.42 6.26111V6.26111ZM469.128 21.0995C469.128 18.7974 467.345 18.0301 465.307 18.0301H460.904C460.762 18.0311 460.625 18.0842 460.519 18.1791C460.414 18.274 460.347 18.4042 460.331 18.5449L458.526 29.7339C458.492 29.9529 458.658 30.1718 458.878 30.1718H460.971C461.269 30.1718 461.544 29.8542 461.578 29.5465L462.073 26.6309C462.184 25.8418 463.526 26.116 464.055 26.116C467.204 26.116 469.13 24.2538 469.13 21.0976L469.128 21.0995ZM478.399 22.0642H476.307C475.888 22.0642 475.867 22.6678 475.845 22.9637C475.207 22.0326 474.281 21.8669 473.235 21.8669C470.538 21.8669 468.478 24.2223 468.478 26.8203C468.478 28.9567 469.822 30.3494 471.968 30.3494C472.959 30.3494 474.192 29.8128 474.886 29.0454C474.822 29.2671 474.784 29.4956 474.775 29.726C474.775 29.9785 474.886 30.1639 475.127 30.1639H477.022C477.319 30.1639 477.573 29.8463 477.629 29.5386L478.752 22.4922C478.786 22.2831 478.619 22.0642 478.399 22.0642V22.0642ZM482.859 32.7935L489.872 22.6441C489.928 22.5889 489.928 22.5337 489.928 22.4587C489.928 22.2733 489.763 22.076 489.575 22.076H487.46C487.362 22.0799 487.266 22.1067 487.18 22.1543C487.094 22.2019 487.02 22.269 486.965 22.3502L484.048 26.625L482.837 22.5159C482.791 22.3909 482.709 22.2824 482.601 22.2043C482.493 22.1263 482.364 22.0822 482.23 22.078H480.171C479.983 22.078 479.818 22.2752 479.818 22.4607C479.818 22.5928 481.965 28.6864 482.153 29.2664C481.856 29.6826 479.896 32.4009 479.896 32.7304C479.896 32.9276 480.06 33.0815 480.248 33.0815H482.363C482.462 33.075 482.558 33.0461 482.644 32.9968C482.73 32.9476 482.803 32.8794 482.859 32.7975V32.7935ZM500.398 21.0995C500.398 18.7974 498.614 18.0301 496.577 18.0301H492.205C492.058 18.0289 491.917 18.0803 491.805 18.1749C491.694 18.2694 491.62 18.4008 491.598 18.5449L489.815 29.724C489.793 29.943 489.957 30.162 490.168 30.162H492.425C492.645 30.162 492.809 29.9982 492.865 29.8108L493.36 26.6329C493.471 25.8438 494.815 26.118 495.342 26.118C498.469 26.118 500.396 24.2558 500.396 21.0995H500.398ZM509.667 22.0642H507.574C507.156 22.0642 507.134 22.6678 507.1 22.9637C506.494 22.0326 505.558 21.8669 504.49 21.8669C501.793 21.8669 499.734 24.2223 499.734 26.8203C499.734 28.9567 501.078 30.3494 503.224 30.3494C504.248 30.3494 505.481 29.8128 506.141 29.0454C506.107 29.2092 506.03 29.5603 506.03 29.726C506.03 29.9785 506.141 30.1639 506.383 30.1639H508.287C508.585 30.1639 508.838 29.8463 508.894 29.5386L510.018 22.4922C510.051 22.2831 509.885 22.0642 509.665 22.0642H509.667ZM514.897 18.4147C514.897 18.1958 514.732 18.032 514.544 18.032H512.507C512.342 18.032 512.176 18.1642 512.154 18.3279L510.37 29.726L510.339 29.7812C510.339 29.9785 510.503 30.1639 510.723 30.1639H512.54C512.816 30.1639 513.091 29.8463 513.113 29.5386L514.897 18.4483V18.4147ZM504.988 24.0921C503.644 24.0921 502.598 25.1553 502.598 26.5027C502.598 27.5659 503.369 28.1459 504.381 28.1459C505.703 28.1459 506.771 27.1379 506.771 25.7905C506.783 24.7174 506.012 24.0921 504.988 24.0921V24.0921Z" fill="#604AEA"/>
</g>
</svg>
